<svg width="24" height="28" viewBox="0 0 24 28" fill="none" xmlns="http://www.w3.org/2000/svg">
<path d="M22.5002 0H1.50016C0.856163 0 0.333496 0.5215 0.333496 1.16667V28L5.00016 24.5L8.50016 28L12.0002 24.5L15.5002 28L19.0002 24.5L23.6668 28V1.16667C23.6668 0.5215 23.1442 0 22.5002 0ZM13.1668 18.6667H5.00016V16.3333H13.1668V18.6667ZM13.1668 14H5.00016V11.6667H13.1668V14ZM13.1668 9.33333H5.00016V7H13.1668V9.33333ZM19.0002 18.6667H15.5002V16.3333H19.0002V18.6667ZM19.0002 14H15.5002V11.6667H19.0002V14ZM19.0002 9.33333H15.5002V7H19.0002V9.33333Z" fill="#52D5BA"/>
</svg>
